<svg width="1224" height="69" viewBox="0 0 1224 69" fill="none" xmlns="http://www.w3.org/2000/svg">
<g clip-path="url(#clip0_2_99)">
<path d="M35.4462 1.36865e-05C30.791 -0.00135331 26.1811 0.918344 21.8799 2.70655C17.5788 4.49475 13.6707 7.11643 10.3789 10.4218C7.08714 13.7271 4.47625 17.6513 2.69539 21.9702C0.914529 26.2891 -0.00135987 30.918 1.51545e-06 35.5924V69.0001H13.7702V55.1938H57.1741V69.0001H70.9236V35.5924C70.9236 30.9157 70.0057 26.2849 68.2224 21.9646C66.4391 17.6443 63.8254 13.7192 60.5306 10.4138C57.2359 7.1083 53.3246 4.48724 49.0205 2.70039C44.7164 0.913536 40.1037 -0.00408748 35.4462 1.36865e-05V1.36865e-05ZM57.143 41.3979H13.7702V35.5924C13.7071 32.6907 14.2217 29.8055 15.284 27.1061C16.3462 24.4068 17.9347 21.9477 19.9562 19.873C21.9776 17.7984 24.3914 16.1501 27.0558 15.0247C29.7202 13.8994 32.5816 13.3197 35.4722 13.3197C38.3627 13.3197 41.2241 13.8994 43.8885 15.0247C46.5529 16.1501 48.9666 17.7984 50.9881 19.873C53.0096 21.9477 54.598 24.4068 55.6603 27.1061C56.7225 29.8055 57.2372 32.6907 57.1741 35.5924L57.143 41.3979Z" fill="white"/>
<path d="M1187.42 0C1178.31 0 1169.57 3.63481 1163.13 10.1048C1156.69 16.5748 1153.07 25.35 1153.07 34.5C1153.07 43.65 1156.69 52.4252 1163.13 58.8952C1169.57 65.3652 1178.31 69 1187.42 69H1223.98V55.1938H1187.41C1183.16 55.1847 1179.01 53.8537 1175.54 51.3837C1172.07 48.9136 1169.45 45.4254 1168.03 41.3979H1223.98V27.6125H1168.03C1169.45 23.5747 1172.08 20.0784 1175.56 17.6056C1179.04 15.1329 1183.2 13.8054 1187.47 13.8063H1223.98V0H1187.42Z" fill="white"/>
<path d="M1081.89 35.6133C1081.71 32.6362 1082.14 29.653 1083.14 26.8475C1084.15 24.0419 1085.72 21.4734 1087.76 19.3002C1089.79 17.127 1092.25 15.3951 1094.98 14.2113C1097.7 13.0275 1100.64 12.4168 1103.61 12.4168C1106.58 12.4168 1109.52 13.0275 1112.25 14.2113C1114.97 15.3951 1117.43 17.127 1119.46 19.3002C1121.5 21.4734 1123.07 24.0419 1124.08 26.8475C1125.09 29.653 1125.51 32.6362 1125.33 35.6133V69H1139.08V35.6133C1139.08 26.168 1135.34 17.1097 1128.69 10.4309C1122.04 3.75212 1113.02 0 1103.61 0C1094.2 0 1085.18 3.75212 1078.53 10.4309C1071.88 17.1097 1068.14 26.168 1068.14 35.6133V69H1081.89V35.6133Z" fill="white"/>
<path d="M970.188 27.6125C970.188 23.9564 971.634 20.45 974.209 17.8648C976.783 15.2795 980.275 13.8271 983.917 13.8271H991.967H1027.49V4.90955e-05H983.968C980.354 -0.00679789 976.774 0.702593 973.434 2.08757C970.093 3.47254 967.057 5.50589 964.501 8.07104C961.944 10.6362 959.917 13.6827 958.535 17.036C957.154 20.3893 956.444 23.9835 956.449 27.6125V69.0104H970.188V41.398H1027.49V27.6125H970.188Z" fill="white"/>
<path d="M906.341 0C897.228 0 888.489 3.63481 882.046 10.1048C875.602 16.5748 871.982 25.35 871.982 34.5C871.982 43.65 875.602 52.4252 882.046 58.8952C888.489 65.3652 897.228 69 906.341 69H942.916V55.1938H906.341C902.079 55.1948 897.922 53.8684 894.442 51.3976C890.963 48.9267 888.332 45.433 886.913 41.3979H942.865V27.6125H886.851C888.272 23.5755 890.904 20.0801 894.385 17.6075C897.866 15.135 902.025 13.8069 906.289 13.8063H942.865V0H906.341Z" fill="white"/>
<path d="M824.092 0H787.516V69H824.092C833.205 69 841.944 65.3652 848.387 58.8952C854.831 52.4252 858.45 43.65 858.45 34.5C858.45 25.35 854.831 16.5748 848.387 10.1048C841.944 3.63481 833.205 0 824.092 0V0ZM824.092 55.1938H801.297V13.7958H824.092C826.838 13.734 829.569 14.2237 832.124 15.2362C834.678 16.2486 837.006 17.7634 838.97 19.6916C840.934 21.6198 842.494 23.9225 843.559 26.4646C844.625 29.0067 845.173 31.7368 845.173 34.4948C845.173 37.2528 844.625 39.9829 843.559 42.525C842.494 45.0671 840.934 47.3698 838.97 49.298C837.006 51.2262 834.678 52.741 832.124 53.7534C829.569 54.7659 826.838 55.2556 824.092 55.1938V55.1938Z" fill="white"/>
<path d="M719.017 20.6938C719.017 17.9754 718.484 15.2836 717.448 12.7722C716.411 10.2608 714.892 7.97912 712.978 6.05739C711.063 4.13566 708.79 2.61159 706.288 1.57224C703.786 0.532892 701.105 -0.00136411 698.398 2.61563e-06H648.094V69H661.833V41.3979H681.364C688.196 50.5952 695.027 59.7959 701.859 69H718.997C712.165 59.8028 705.333 50.6021 698.502 41.3979C703.952 41.3704 709.17 39.177 713.015 35.2971C716.859 31.4173 719.017 26.1669 719.017 20.6938V20.6938ZM661.833 27.6125V13.7959H698.398C699.324 13.7598 700.246 13.9116 701.112 14.2423C701.977 14.5729 702.767 15.0756 703.435 15.7202C704.102 16.3647 704.633 17.138 704.996 17.9935C705.358 18.849 705.545 19.7692 705.545 20.699C705.545 21.6288 705.358 22.549 704.996 23.4045C704.633 24.26 704.102 25.0332 703.435 25.6778C702.767 26.3223 701.977 26.825 701.112 27.1557C700.246 27.4863 699.324 27.6382 698.398 27.6021L661.833 27.6125Z" fill="white"/>
<path d="M597.53 0C588.418 0 579.679 3.63481 573.235 10.1048C566.792 16.5748 563.172 25.35 563.172 34.5C563.172 43.65 566.792 52.4252 573.235 58.8952C579.679 65.3652 588.418 69 597.53 69H634.106V55.1938H597.53C593.269 55.1948 589.111 53.8684 585.632 51.3976C582.152 48.9267 579.522 45.433 578.103 41.3979H634.054V27.6125H578.103C579.521 23.5763 582.152 20.0812 585.631 17.6086C589.11 15.136 593.268 13.8076 597.53 13.8063H634.106V0H597.53Z" fill="white"/>
<path d="M427.769 0C418.657 0 409.918 3.63481 403.474 10.1048C397.031 16.5748 393.411 25.35 393.411 34.5C393.411 43.65 397.031 52.4252 403.474 58.8952C409.918 65.3652 418.657 69 427.769 69H464.335V55.1938H427.769C423.506 55.1954 419.348 53.8695 415.866 51.3987C412.385 48.9279 409.753 45.4338 408.331 41.3979H464.283V27.6125H408.331C409.751 23.5747 412.383 20.0784 415.864 17.6056C419.345 15.1329 423.505 13.8054 427.769 13.8063H464.335V0H427.769Z" fill="white"/>
<path d="M322.353 35.6133C322.182 32.6428 322.617 29.6686 323.631 26.873C324.646 24.0774 326.218 21.5193 328.252 19.3555C330.286 17.1917 332.738 15.4679 335.459 14.2897C338.18 13.1115 341.112 12.5037 344.075 12.5037C347.039 12.5037 349.971 13.1115 352.692 14.2897C355.413 15.4679 357.865 17.1917 359.899 19.3555C361.933 21.5193 363.505 24.0774 364.52 26.873C365.534 29.6686 365.969 32.6428 365.798 35.6133V69.0001H379.527V35.6133C379.607 30.8859 378.75 26.1898 377.004 21.7989C375.258 17.4079 372.658 13.41 369.358 10.0384C366.057 6.66669 362.12 3.98877 357.778 2.16079C353.435 0.332805 348.774 -0.608643 344.065 -0.608643C339.357 -0.608643 334.695 0.332805 330.353 2.16079C326.01 3.98877 322.074 6.66669 318.773 10.0384C315.472 13.41 312.873 17.4079 311.127 21.7989C309.381 26.1898 308.523 30.8859 308.603 35.6133V69.0001H322.343L322.353 35.6133Z" fill="white"/>
<path d="M205.767 0H169.191V69H205.767C214.879 69 223.618 65.3652 230.062 58.8952C236.505 52.4252 240.125 43.65 240.125 34.5C240.125 25.35 236.505 16.5748 230.062 10.1048C223.618 3.63481 214.879 0 205.767 0ZM205.767 55.1938H182.972V13.7958H205.767C211.154 13.9171 216.28 16.1512 220.047 20.0198C223.814 23.8884 225.924 29.0841 225.924 34.4948C225.924 39.9055 223.814 45.1013 220.047 48.9699C216.28 52.8385 211.154 55.0725 205.767 55.1938Z" fill="white"/>
<path d="M98.3088 35.6133C98.1378 32.6428 98.5728 29.6686 99.5871 26.873C100.601 24.0774 102.174 21.5193 104.208 19.3555C106.242 17.1917 108.694 15.4679 111.415 14.2897C114.136 13.1115 117.068 12.5037 120.031 12.5037C122.995 12.5037 125.927 13.1115 128.647 14.2897C131.368 15.4679 133.821 17.1917 135.855 19.3555C137.889 21.5193 139.461 24.0774 140.476 26.873C141.49 29.6686 141.925 32.6428 141.754 35.6133V69H155.504V35.6133C155.504 26.168 151.767 17.1097 145.116 10.4309C138.464 3.75212 129.443 0 120.037 0C110.63 0 101.609 3.75212 94.9576 10.4309C88.3062 17.1097 84.5696 26.168 84.5696 35.6133V69H98.3088V35.6133Z" fill="white"/>
<path d="M1054.62 0H1040.87V69H1054.62V0Z" fill="white"/>
<path d="M478.323 30.3279C478.323 31.7325 478.323 33.1162 478.468 34.4896C478.557 35.4564 478.713 36.4158 478.934 37.3611C479.23 38.7924 479.785 40.1571 480.571 41.3875C481.035 42.0713 481.555 42.7151 482.125 43.3123V43.3123L483.089 44.2903L487.016 48.2543L492.031 53.3106L493.865 55.1625L500.703 62.0605L501.076 62.435C502.113 63.4754 503.066 64.4118 504.185 65.3065C504.929 65.9209 505.711 66.4874 506.526 67.0024C508.729 68.288 511.232 68.9652 513.779 68.9652C516.327 68.9652 518.83 68.288 521.032 67.0024C521.844 66.4872 522.623 65.9208 523.364 65.3065C524.4 64.4118 525.436 63.4338 526.472 62.435L526.845 62.0605L533.684 55.1625L535.507 53.3106L540.522 48.2543L544.449 44.2903L545.402 43.3123C545.973 42.7178 546.489 42.0736 546.946 41.3875C547.736 40.1578 548.294 38.7931 548.594 37.3611C548.811 36.4156 548.963 35.4561 549.05 34.4896C549.184 33.1058 549.205 31.7221 549.205 30.3279V0H535.455V33.7925L534.751 34.5L527.912 41.3979L521.084 48.2959L514.246 55.2042L513.769 55.6723L513.292 55.2042L506.454 48.2959L499.615 41.3979L492.777 34.5C492.539 34.2607 492.311 34.0214 492.072 33.7925V0H478.333L478.323 30.3279Z" fill="white"/>
</g>
<defs>
<clipPath id="clip0_2_99">
<rect width="1224" height="69" fill="white"/>
</clipPath>
</defs>
</svg>
