<svg width="288" height="168" viewBox="0 0 288 168" fill="none" xmlns="http://www.w3.org/2000/svg">
<path d="M23.9923 0C17.8032 -3.55266e-07 11.8675 2.45754 7.49036 6.83222C3.11325 11.2069 0.65322 17.1405 0.651123 23.3283V45.2253H9.69969V36.147H38.2772V45.1936H47.3258V23.2967C47.3174 17.1151 44.8554 11.1896 40.4804 6.8215C36.1055 2.45344 30.1753 -5.68256e-06 23.9923 0ZM38.2772 27.1399H9.69969V23.3283C9.65487 21.424 9.99133 19.53 10.6893 17.7576C11.3872 15.9851 12.4325 14.3701 13.7638 13.0075C15.0951 11.6448 16.6854 10.562 18.4413 9.8227C20.1972 9.08342 22.0832 8.7026 23.9884 8.7026C25.8936 8.7026 27.7797 9.08342 29.5356 9.8227C31.2915 10.562 32.8818 11.6448 34.2131 13.0075C35.5443 14.3701 36.5897 15.9851 37.2876 17.7576C37.9855 19.53 38.322 21.424 38.2772 23.3283V27.1399Z" fill="white"/>
<path d="M136.119 0H112.042V45.2332H136.119C139.125 45.2894 142.112 44.746 144.905 43.6348C147.698 42.5237 150.242 40.867 152.388 38.7617C154.533 36.6564 156.238 34.1446 157.401 31.3731C158.564 28.6017 159.164 25.6262 159.164 22.6205C159.164 19.6149 158.564 16.6394 157.401 13.868C156.238 11.0965 154.533 8.58471 152.388 6.47937C150.242 4.37402 147.698 2.71737 144.905 1.60622C142.112 0.495066 139.125 -0.0482842 136.119 0.00791562V0ZM136.119 36.1786H121.091V9.015H136.119C137.929 8.97132 139.729 9.28991 141.413 9.95203C143.097 10.6142 144.633 11.6064 145.928 12.8705C147.223 14.1345 148.252 15.6448 148.955 17.3124C149.658 18.9801 150.02 20.7714 150.02 22.581C150.02 24.3906 149.658 26.1819 148.955 27.8496C148.252 29.5172 147.223 31.0275 145.928 32.2915C144.633 33.5556 143.097 34.5478 141.413 35.21C139.729 35.8721 137.929 36.1907 136.119 36.147V36.1786Z" fill="white"/>
<path d="M65.3756 23.3126C65.3756 19.5207 66.8823 15.884 69.5642 13.2027C72.2461 10.5214 75.8835 9.01511 79.6762 9.01511C83.469 9.01511 87.1064 10.5214 89.7883 13.2027C92.4702 15.884 93.9769 19.5207 93.9769 23.3126V45.1937H103.025V23.3126C102.803 17.2742 100.247 11.5573 95.8958 7.36396C91.5442 3.17064 85.7359 0.827637 79.692 0.827637C73.6482 0.827637 67.8399 3.17064 63.4883 7.36396C59.1368 11.5573 56.5811 17.2742 56.3586 23.3126V45.1937H65.4073L65.3756 23.3126Z" fill="white"/>
<path d="M263.923 122.604C257.923 122.604 252.17 124.987 247.927 129.228C243.685 133.47 241.302 139.222 241.302 145.221C241.302 151.219 243.685 156.971 247.927 161.213C252.17 165.454 257.923 167.837 263.923 167.837H288V158.79H263.923C261.117 158.788 258.38 157.918 256.088 156.298C253.797 154.678 252.063 152.389 251.125 149.744H288V140.697H251.125C252.06 138.051 253.793 135.759 256.085 134.139C258.377 132.519 261.116 131.649 263.923 131.651H288V122.604H263.923Z" fill="white"/>
<path d="M194.445 145.964C194.445 142.172 195.952 138.535 198.633 135.854C201.315 133.173 204.953 131.666 208.746 131.666C212.538 131.666 216.176 133.173 218.858 135.854C221.539 138.535 223.046 142.172 223.046 145.964V167.853H232.095V145.964C231.872 139.926 229.317 134.209 224.965 130.015C220.614 125.822 214.805 123.479 208.761 123.479C202.718 123.479 196.909 125.822 192.558 130.015C188.206 134.209 185.65 139.926 185.428 145.964V167.853H194.477L194.445 145.964Z" fill="white"/>
<path d="M120.909 140.697C120.909 139.51 121.143 138.335 121.597 137.238C122.052 136.142 122.718 135.145 123.557 134.306C124.397 133.467 125.393 132.801 126.49 132.347C127.587 131.892 128.763 131.659 129.95 131.659H158.63V122.604H129.95C127.575 122.604 125.223 123.072 123.028 123.981C120.834 124.89 118.841 126.222 117.162 127.902C115.482 129.581 114.151 131.575 113.242 133.769C112.334 135.963 111.867 138.315 111.868 140.689V167.829H120.909V149.744H158.63V140.697H120.909Z" fill="white"/>
<path d="M78.8771 122.604C72.8775 122.604 67.1236 124.987 62.8813 129.228C58.6389 133.47 56.2556 139.222 56.2556 145.221C56.2556 151.219 58.6389 156.971 62.8813 161.213C67.1236 165.454 72.8775 167.837 78.8771 167.837H102.954V158.79H78.8771C76.0715 158.789 73.3352 157.918 71.0448 156.298C68.7544 154.678 67.0225 152.389 66.0873 149.744H102.954V140.697H66.0873C67.0205 138.051 68.752 135.76 71.0428 134.14C73.3337 132.519 76.0709 131.65 78.8771 131.651H102.954V122.604H78.8771Z" fill="white"/>
<path d="M24.728 122.604H0.651123V167.837H24.728C30.7276 167.837 36.4815 165.454 40.7238 161.213C44.9662 156.971 47.3495 151.219 47.3495 145.221C47.3495 139.222 44.9662 133.47 40.7238 129.228C36.4815 124.987 30.7276 122.604 24.728 122.604ZM24.728 158.79H9.69969V131.651H24.728C28.3277 131.651 31.78 133.08 34.3255 135.625C36.8709 138.17 38.3009 141.622 38.3009 145.221C38.3009 148.82 36.8709 152.271 34.3255 154.816C31.78 157.361 28.3277 158.79 24.728 158.79Z" fill="white"/>
<path d="M176.49 122.604H167.441V167.837H176.49V122.604Z" fill="white"/>
<path d="M270.169 75.2955C270.169 71.6966 268.739 68.245 266.194 65.7001C263.648 63.1553 260.196 61.7256 256.596 61.7256H223.479V106.975H232.527V88.8655H245.381L258.874 106.975H270.161C265.658 100.949 261.16 94.9177 256.668 88.8813C260.258 88.8646 263.696 87.4251 266.227 84.8784C268.758 82.3317 270.176 78.8856 270.169 75.2955ZM232.527 79.8189V70.7722H256.596C257.796 70.7722 258.947 71.2488 259.796 72.0971C260.644 72.9454 261.121 74.0959 261.121 75.2955C261.121 76.4952 260.644 77.6457 259.796 78.494C258.947 79.3423 257.796 79.8189 256.596 79.8189H232.527Z" fill="white"/>
<path d="M190.195 61.7256C187.189 61.6694 184.202 62.2128 181.409 63.3239C178.616 64.4351 176.072 66.0918 173.926 68.1971C171.781 70.3025 170.076 72.8142 168.913 75.5857C167.75 78.3571 167.15 81.3326 167.15 84.3383C167.15 87.3439 167.75 90.3194 168.913 93.0908C170.076 95.8623 171.781 98.3741 173.926 100.479C176.072 102.585 178.616 104.241 181.409 105.353C184.202 106.464 187.189 107.007 190.195 106.951H214.272V97.9043H190.195C187.389 97.9039 184.652 97.0347 182.361 95.4162C180.069 93.7977 178.335 91.5093 177.397 88.8655H214.272V79.8189H177.397C178.333 77.173 180.066 74.8823 182.358 73.2621C184.65 71.6419 187.388 70.772 190.195 70.7723H214.272V61.7256H190.195Z" fill="white"/>
<path d="M78.432 61.7256C75.4262 61.6694 72.4393 62.2128 69.646 63.3239C66.8527 64.4351 64.309 66.0918 62.1634 68.1971C60.0179 70.3025 58.3136 72.8142 57.1501 75.5857C55.9867 78.3571 55.3875 81.3326 55.3875 84.3383C55.3875 87.3439 55.9867 90.3194 57.1501 93.0908C58.3136 95.8623 60.0179 98.3741 62.1634 100.479C64.309 102.585 66.8527 104.241 69.646 105.353C72.4393 106.464 75.4262 107.007 78.432 106.951H102.509V97.9043H78.432C75.6262 97.9039 72.8894 97.0347 70.5977 95.4162C68.3061 93.7977 66.5722 91.5093 65.6342 88.8655H102.509V79.8189H65.6342C66.5689 77.1724 68.3018 74.881 70.594 73.2606C72.8862 71.6403 75.6247 70.7709 78.432 70.7723H102.509V61.7256H78.432Z" fill="white"/>
<path d="M9.03281 85.0697C9.03281 81.2778 10.5395 77.6412 13.2214 74.9599C15.9033 72.2786 19.5406 70.7723 23.3334 70.7723C27.1261 70.7723 30.7636 72.2786 33.4455 74.9599C36.1274 77.6412 37.6341 81.2778 37.6341 85.0697V106.975H46.6826V85.0697C46.7981 81.9339 46.2802 78.807 45.1596 75.8759C44.039 72.9448 42.3389 70.2697 40.1608 68.0104C37.9827 65.7511 35.3713 63.954 32.4828 62.7266C29.5942 61.4991 26.4878 60.8665 23.3492 60.8665C20.2106 60.8665 17.1043 61.4991 14.2158 62.7266C11.3273 63.954 8.71589 65.7511 6.53779 68.0104C4.35968 70.2697 2.65953 72.9448 1.53894 75.8759C0.418359 78.807 -0.0996948 81.9339 0.0158192 85.0697V106.975H9.06448L9.03281 85.0697Z" fill="white"/>
<path d="M111.716 81.6061C111.716 82.5234 111.716 83.4328 111.811 84.3422C111.872 84.9725 111.972 85.5984 112.111 86.2163C112.311 87.1571 112.678 88.0543 113.195 88.8655C113.498 89.3129 113.84 89.7336 114.215 90.1229L114.848 90.7634L117.434 93.3651L120.74 96.6785L121.943 97.8884L126.443 102.404L126.689 102.657C127.345 103.305 128.002 103.946 128.713 104.531C129.196 104.941 129.709 105.313 130.248 105.646C131.696 106.488 133.342 106.931 135.017 106.931C136.693 106.931 138.338 106.488 139.787 105.646C140.326 105.313 140.838 104.941 141.321 104.531C142.033 103.946 142.69 103.305 143.346 102.657L143.591 102.404L148.092 97.8884L149.334 96.6943L152.64 93.3809L155.226 90.7792L155.859 90.1387C156.235 89.7494 156.576 89.3287 156.88 88.8813C157.396 88.0701 157.763 87.1729 157.963 86.2322C158.102 85.6142 158.202 84.9883 158.264 84.358C158.351 83.4486 158.359 82.5392 158.359 81.6219V61.7256H149.334V83.8677L148.875 84.3343C147.372 85.8368 145.872 87.3445 144.374 88.8576C142.877 90.3706 141.377 91.8784 139.874 93.3809C138.371 94.8834 136.871 96.3912 135.373 97.9042L135.057 98.2126L134.749 97.9042L130.24 93.3809C128.748 91.8731 127.248 90.3654 125.739 88.8576C124.231 87.3498 122.731 85.842 121.239 84.3343L120.78 83.8677V61.7256H111.731L111.716 81.6061Z" fill="white"/>
</svg>
