<svg width="21" height="26" viewBox="0 0 21 26" fill="none" xmlns="http://www.w3.org/2000/svg">
<path d="M19.3245 11.827C19.1249 11.5608 18.9036 11.3142 18.6784 11.0755C18.4531 10.8368 18.2199 10.6019 17.9848 10.371C17.6983 10.0873 17.4098 9.80154 17.1233 9.51388C18.0619 8.39648 18.5401 6.96598 18.4669 5.51394C18.3938 4.058 17.7694 2.6862 16.7221 1.66665C15.6768 0.643185 14.2798 0.0521965 12.8097 0.00327361C11.3395 -0.0456492 9.90496 0.455321 8.7905 1.40247C8.61069 1.55706 8.34986 1.81538 8.1819 1.98171C7.57724 2.58444 6.97259 3.18326 6.36793 3.78208C7.1939 4.60007 8.02184 5.42001 8.84781 6.238C9.52557 5.56678 10.1994 4.89947 10.8732 4.22825C10.9641 4.14019 11.0906 4.01886 11.1953 3.9445C12.1477 3.22827 13.4953 3.33786 14.3193 4.1989C15.1453 5.05994 15.1888 6.39456 14.4142 7.30452C14.345 7.38475 14.2719 7.45912 14.1968 7.53544C11.7861 9.91896 9.3833 12.3044 6.97456 14.688C6.41931 15.2418 5.85615 15.7995 5.29892 16.3513C4.47296 15.5353 3.64502 14.7173 2.81905 13.8993L0.333252 16.3572C0.839106 16.8582 1.34694 17.3572 1.85279 17.8582L2.81708 18.8131L2.66492 18.9677C1.88836 19.7329 1.11377 20.5039 0.337204 21.2691L2.81708 23.7289C3.64304 22.9109 4.47493 22.0871 5.3009 21.2691L6.17034 22.1301C6.32644 22.2847 6.48847 22.4452 6.64457 22.5958C6.82044 22.77 7.00025 22.9403 7.18797 23.0968C8.75691 24.408 10.7586 25.1027 12.8116 25.0498C14.8627 24.997 16.8229 24.1966 18.3207 22.8052C19.8165 21.4139 20.7433 19.5294 20.931 17.5059C21.1148 15.4805 20.5457 13.461 19.3245 11.827ZM17.4374 17.183C17.3268 18.4041 16.7518 19.5333 15.8329 20.3493C14.9102 21.1653 13.7127 21.6037 12.4757 21.5743C11.2388 21.5469 10.065 21.0558 9.17977 20.1986C8.71344 19.7368 8.24908 19.273 7.78275 18.8112C10.0709 16.5412 12.3651 14.2653 14.6572 11.9952C15.0524 12.3866 15.4496 12.7761 15.8448 13.1674C16.0246 13.3455 16.2657 13.5921 16.4238 13.7936C17.1845 14.7525 17.5442 15.9658 17.4374 17.183Z" fill="white"/>
</svg>
