<svg width="1171" height="120" viewBox="0 0 1171 120" fill="none" xmlns="http://www.w3.org/2000/svg">
<g opacity="0.5" filter="url(#filter0_b_2_57)">
<path d="M54.7403 0.520481C68.287 0.520481 79.3803 4.04048 88.0203 11.0805C96.2336 17.6938 101.247 26.8672 103.06 38.6005H84.8203C82.9003 31.1338 79.327 25.6405 74.1003 22.1205C69.087 18.7072 62.527 17.0005 54.4203 17.0005C42.367 17.0005 33.3536 21.1072 27.3803 29.3205C21.8336 36.5738 19.0603 46.8138 19.0603 60.0405C19.0603 73.4805 21.7803 83.8272 27.2203 91.0805C33.1936 98.8672 42.4203 102.76 54.9003 102.76C63.007 102.76 69.6736 100.787 74.9003 96.8405C80.3403 92.5738 84.1803 86.0672 86.4203 77.3205H104.66C102.1 90.7605 96.127 101.214 86.7403 108.68C77.9936 115.72 67.4336 119.24 55.0603 119.24C36.0736 119.24 21.887 113.267 12.5003 101.32C4.39364 91.1872 0.340308 77.4272 0.340308 60.0405C0.340308 42.8672 4.55364 29.0538 12.9803 18.6005C22.4736 6.54715 36.3936 0.520481 54.7403 0.520481ZM173.048 0.520481C190.541 0.520481 204.301 6.17381 214.328 17.4805C223.928 28.1472 228.728 42.3338 228.728 60.0405C228.728 77.5338 223.928 91.6672 214.328 102.44C204.301 113.64 190.541 119.24 173.048 119.24C155.554 119.24 141.794 113.587 131.768 102.28C122.274 91.5072 117.528 77.4272 117.528 60.0405C117.528 42.5472 122.274 28.4138 131.768 17.6405C141.581 6.22715 155.341 0.520481 173.048 0.520481ZM173.048 17.0005C161.314 17.0005 152.141 21.0005 145.528 29.0005C139.341 36.5738 136.248 46.9205 136.248 60.0405C136.248 73.0538 139.341 83.3472 145.528 90.9205C151.928 98.8138 161.101 102.76 173.048 102.76C184.888 102.76 194.008 98.9738 200.408 91.4005C206.701 83.8272 209.848 73.3738 209.848 60.0405C209.848 46.7072 206.701 36.1472 200.408 28.3605C194.114 20.7872 184.994 17.0005 173.048 17.0005ZM246.39 2.76048H268.31L307.19 92.3605H307.83L346.55 2.76048H368.47V117H349.75V38.2805H349.11L315.51 117H299.35L265.75 38.2805H265.11V117H246.39V2.76048ZM390.922 2.76048H409.642V117H390.922V2.76048ZM432.015 2.76048H450.735L507.215 85.1605H507.855V2.76048H526.735V117H508.495L451.375 33.4805H450.735V117H432.015V2.76048ZM598.803 0.520481C613.523 0.520481 625.096 3.77381 633.523 10.2805C641.736 16.6805 646.856 26.2271 648.883 38.9205H630.003C628.403 31.6671 624.989 26.1738 619.763 22.4405C614.536 18.8138 607.549 17.0005 598.803 17.0005C588.029 17.0005 579.549 20.6272 573.363 27.8805C566.536 35.4538 563.123 46.2805 563.123 60.3605C563.123 73.8005 566.163 84.1472 572.243 91.4005C578.856 99.0805 589.096 102.92 602.963 102.92C608.403 102.92 613.523 102.28 618.323 101C622.589 99.8272 626.696 98.0672 630.643 95.7205V72.2005H600.403V56.2005H649.363V104.52C643.496 109.214 636.563 112.84 628.563 115.4C620.243 117.96 611.016 119.24 600.883 119.24C582.749 119.24 568.616 113.48 558.483 101.96C549.096 91.2938 544.403 77.4272 544.403 60.3605C544.403 43.1872 549.096 29.1071 558.483 18.1205C568.296 6.38715 581.736 0.520481 598.803 0.520481ZM763.742 0.520481C777.288 0.520481 787.795 3.29381 795.262 8.84048C803.262 14.8138 807.848 24.0405 809.022 36.5205H790.462C788.862 29.4805 785.928 24.4138 781.662 21.3205C777.608 18.2271 771.315 16.6805 762.782 16.6805C755.528 16.6805 750.035 17.6938 746.302 19.7205C741.608 22.0672 739.262 26.0138 739.262 31.5605C739.262 36.5738 741.928 40.4672 747.262 43.2405C749.822 44.6272 756.328 46.9738 766.782 50.2805C781.822 54.8672 791.795 58.6005 796.702 61.4805C806.622 67.3472 811.582 75.5605 811.582 86.1205C811.582 96.3605 807.582 104.467 799.582 110.44C791.475 116.307 780.168 119.24 765.662 119.24C751.582 119.24 740.595 116.52 732.702 111.08C722.995 104.36 717.768 93.7472 717.022 79.2405H735.582C736.862 87.9872 739.955 94.1738 744.862 97.8005C749.448 101.107 756.382 102.76 765.662 102.76C773.982 102.76 780.595 101.374 785.502 98.6005C790.408 95.6138 792.862 91.8272 792.862 87.2405C792.862 81.1605 789.288 76.3605 782.142 72.8405C779.582 71.5605 772.168 69.0538 759.902 65.3205C745.715 60.8405 736.968 57.6405 733.662 55.7205C724.915 50.4938 720.542 42.8138 720.542 32.6805C720.542 22.4405 724.808 14.4938 733.342 8.84048C741.235 3.29381 751.368 0.520481 763.742 0.520481ZM878.36 0.520481C895.854 0.520481 909.614 6.17381 919.64 17.4805C929.24 28.1472 934.04 42.3338 934.04 60.0405C934.04 77.5338 929.24 91.6672 919.64 102.44C909.614 113.64 895.854 119.24 878.36 119.24C860.867 119.24 847.107 113.587 837.08 102.28C827.587 91.5072 822.84 77.4272 822.84 60.0405C822.84 42.5472 827.587 28.4138 837.08 17.6405C846.894 6.22715 860.654 0.520481 878.36 0.520481ZM878.36 17.0005C866.627 17.0005 857.454 21.0005 850.84 29.0005C844.654 36.5738 841.56 46.9205 841.56 60.0405C841.56 73.0538 844.654 83.3472 850.84 90.9205C857.24 98.8138 866.414 102.76 878.36 102.76C890.2 102.76 899.32 98.9738 905.72 91.4005C912.014 83.8272 915.16 73.3738 915.16 60.0405C915.16 46.7072 912.014 36.1472 905.72 28.3605C899.427 20.7872 890.307 17.0005 878.36 17.0005ZM1002.42 0.520481C1019.92 0.520481 1033.68 6.17381 1043.7 17.4805C1053.3 28.1472 1058.1 42.3338 1058.1 60.0405C1058.1 77.5338 1053.3 91.6672 1043.7 102.44C1033.68 113.64 1019.92 119.24 1002.42 119.24C984.929 119.24 971.169 113.587 961.143 102.28C951.649 91.5072 946.903 77.4272 946.903 60.0405C946.903 42.5472 951.649 28.4138 961.143 17.6405C970.956 6.22715 984.716 0.520481 1002.42 0.520481ZM1002.42 17.0005C990.689 17.0005 981.516 21.0005 974.903 29.0005C968.716 36.5738 965.623 46.9205 965.623 60.0405C965.623 73.0538 968.716 83.3472 974.903 90.9205C981.303 98.8138 990.476 102.76 1002.42 102.76C1014.26 102.76 1023.38 98.9738 1029.78 91.4005C1036.08 83.8272 1039.22 73.3738 1039.22 60.0405C1039.22 46.7072 1036.08 36.1472 1029.78 28.3605C1023.49 20.7872 1014.37 17.0005 1002.42 17.0005ZM1075.77 2.76048H1094.49L1150.97 85.1605H1151.61V2.76048H1170.49V117H1152.25L1095.13 33.4805H1094.49V117H1075.77V2.76048Z" fill="#C4C4C4" fill-opacity="0.2"/>
<path d="M88.0203 11.0805L86.7569 12.631L86.766 12.6383L88.0203 11.0805ZM103.06 38.6005V40.6005H105.393L105.037 38.295L103.06 38.6005ZM84.8203 38.6005L82.8833 39.0986L83.2695 40.6005H84.8203V38.6005ZM74.1003 22.1205L72.9747 23.7737L72.9831 23.7794L74.1003 22.1205ZM27.3803 29.3205L28.969 30.5354L28.9836 30.5163L28.9978 30.4968L27.3803 29.3205ZM27.2203 91.0805L25.6203 92.2805L25.6268 92.2892L25.6334 92.2978L27.2203 91.0805ZM74.9003 96.8405L76.1055 98.4366L76.1202 98.4255L76.1346 98.4142L74.9003 96.8405ZM86.4203 77.3205V75.3205H84.868L84.4828 76.8243L86.4203 77.3205ZM104.66 77.3205L106.625 77.6947L107.077 75.3205H104.66V77.3205ZM86.7403 108.68L85.4952 107.115L85.4863 107.122L86.7403 108.68ZM12.5003 101.32L14.073 100.085L14.0675 100.078L14.062 100.071L12.5003 101.32ZM12.9803 18.6005L14.5374 19.8557L14.5445 19.8469L14.5515 19.838L12.9803 18.6005ZM54.7403 2.52048C67.9293 2.52048 78.546 5.94054 86.757 12.6309L89.2837 9.53001C80.2146 2.14042 68.6446 -1.47952 54.7403 -1.47952V2.52048ZM86.766 12.6383C94.5412 18.8989 99.3363 27.5987 101.084 38.906L105.037 38.295C103.158 26.1356 97.926 16.4888 89.2746 9.5227L86.766 12.6383ZM103.06 36.6005H84.8203V40.6005H103.06V36.6005ZM86.7573 38.1024C84.7438 30.2723 80.9361 24.3129 75.2175 20.4616L72.9831 23.7794C77.7178 26.9681 81.0568 31.9954 82.8833 39.0986L86.7573 38.1024ZM75.2259 20.4673C69.7858 16.7634 62.7958 15.0005 54.4203 15.0005V19.0005C62.2581 19.0005 68.3882 20.6509 72.9747 23.7737L75.2259 20.4673ZM54.4203 15.0005C41.8627 15.0005 32.1858 19.3126 25.7628 28.1441L28.9978 30.4968C34.5215 22.9017 42.8712 19.0005 54.4203 19.0005V15.0005ZM25.7916 28.1056C19.882 35.8335 17.0603 46.5649 17.0603 60.0405H21.0603C21.0603 47.0628 23.7853 37.3141 28.969 30.5354L25.7916 28.1056ZM17.0603 60.0405C17.0603 73.7139 19.8222 84.5497 25.6203 92.2805L28.8203 89.8805C23.7384 83.1046 21.0603 73.2471 21.0603 60.0405H17.0603ZM25.6334 92.2978C32.0855 100.708 41.984 104.76 54.9003 104.76V100.76C42.8566 100.76 34.3018 97.0258 28.8072 89.8632L25.6334 92.2978ZM54.9003 104.76C63.3365 104.76 70.4561 102.702 76.1055 98.4366L73.6951 95.2444C68.8912 98.8718 62.6774 100.76 54.9003 100.76V104.76ZM76.1346 98.4142C82.0145 93.8025 86.042 86.8592 88.3578 77.8167L84.4828 76.8243C82.3186 85.2751 78.6662 91.3451 73.666 95.2668L76.1346 98.4142ZM86.4203 79.3205H104.66V75.3205H86.4203V79.3205ZM102.696 76.9463C100.212 89.9863 94.4547 99.9884 85.4953 107.115L87.9854 110.246C97.7992 102.439 103.989 91.5347 106.625 77.6947L102.696 76.9463ZM85.4863 107.122C77.1318 113.847 67.027 117.24 55.0603 117.24V121.24C67.8403 121.24 78.8555 117.594 87.9943 110.239L85.4863 107.122ZM55.0603 117.24C36.5188 117.24 22.9872 111.43 14.073 100.085L10.9277 102.556C20.7867 115.104 35.6285 121.24 55.0603 121.24V117.24ZM14.062 100.071C6.32238 90.3965 2.34031 77.1272 2.34031 60.0405H-1.65969C-1.65969 77.7271 2.4649 91.9778 10.9386 102.57L14.062 100.071ZM2.34031 60.0405C2.34031 43.1943 6.46925 29.8642 14.5374 19.8557L11.4232 17.3453C2.63803 28.2434 -1.65969 42.54 -1.65969 60.0405H2.34031ZM14.5515 19.838C23.5899 8.3623 36.8727 2.52048 54.7403 2.52048V-1.47952C35.9146 -1.47952 21.3574 4.732 11.4091 17.363L14.5515 19.838ZM214.328 17.4805L212.831 18.8075L212.836 18.813L212.841 18.8184L214.328 17.4805ZM214.328 102.44L215.818 103.774L215.821 103.771L214.328 102.44ZM131.768 102.28L130.267 103.603L130.271 103.607L131.768 102.28ZM131.768 17.6405L133.268 18.9627L133.276 18.9536L133.284 18.9444L131.768 17.6405ZM145.528 29.0005L143.986 27.7262L143.979 27.7352L145.528 29.0005ZM145.528 90.9205L147.081 89.6609L147.077 89.6552L145.528 90.9205ZM200.408 91.4005L201.935 92.6914L201.941 92.6851L201.946 92.6787L200.408 91.4005ZM200.408 28.3605L201.963 27.1033L201.955 27.0927L201.946 27.0822L200.408 28.3605ZM173.048 2.52048C190.069 2.52048 203.246 7.99802 212.831 18.8075L215.824 16.1535C205.357 4.34961 191.014 -1.47952 173.048 -1.47952V2.52048ZM212.841 18.8184C222.038 29.0371 226.728 42.7072 226.728 60.0405H230.728C230.728 41.9604 225.818 27.2572 215.814 16.1426L212.841 18.8184ZM226.728 60.0405C226.728 77.1524 222.042 90.777 212.835 101.11L215.821 103.771C225.813 92.5573 230.728 77.9153 230.728 60.0405H226.728ZM212.838 101.106C203.254 111.812 190.075 117.24 173.048 117.24V121.24C191.008 121.24 205.349 115.469 215.818 103.774L212.838 101.106ZM173.048 117.24C156.027 117.24 142.85 111.763 133.264 100.954L130.271 103.607C140.739 115.411 155.082 121.24 173.048 121.24V117.24ZM133.268 100.958C124.161 90.6235 119.528 77.0478 119.528 60.0405H115.528C115.528 77.8065 120.387 92.3908 130.267 103.603L133.268 100.958ZM119.528 60.0405C119.528 42.9229 124.163 29.2953 133.268 18.9627L130.267 16.3182C120.386 27.5324 115.528 42.1714 115.528 60.0405H119.528ZM133.284 18.9444C142.649 8.0523 155.81 2.52048 173.048 2.52048V-1.47952C154.872 -1.47952 140.513 4.40199 130.251 16.3366L133.284 18.9444ZM173.048 15.0005C160.806 15.0005 151.032 19.2031 143.986 27.7262L147.069 30.2748C153.25 22.7978 161.823 19.0005 173.048 19.0005V15.0005ZM143.979 27.7352C137.414 35.7713 134.248 46.6171 134.248 60.0405H138.248C138.248 47.2239 141.268 37.3764 147.077 30.2658L143.979 27.7352ZM134.248 60.0405C134.248 73.3618 137.416 84.1524 143.979 92.1858L147.077 89.6552C141.266 82.5419 138.248 72.7458 138.248 60.0405H134.248ZM143.974 92.1801C150.823 100.626 160.616 104.76 173.048 104.76V100.76C161.586 100.76 153.033 97.0012 147.081 89.6609L143.974 92.1801ZM173.048 104.76C185.351 104.76 195.081 100.802 201.935 92.6914L198.88 90.1096C192.935 97.1452 184.425 100.76 173.048 100.76V104.76ZM201.946 92.6787C208.629 84.6369 211.848 73.6753 211.848 60.0405H207.848C207.848 73.0723 204.774 83.0175 198.87 90.1223L201.946 92.6787ZM211.848 60.0405C211.848 46.4018 208.627 35.3485 201.963 27.1033L198.852 29.6177C204.775 36.9458 207.848 47.0125 207.848 60.0405H211.848ZM201.946 27.0822C195.192 18.9543 185.45 15.0005 173.048 15.0005V19.0005C184.539 19.0005 193.037 22.62 198.87 29.6387L201.946 27.0822ZM246.39 2.76048V0.760481H244.39V2.76048H246.39ZM268.31 2.76048L270.145 1.96435L269.623 0.760481H268.31V2.76048ZM307.19 92.3605L305.356 93.1566L305.878 94.3605H307.19V92.3605ZM307.83 92.3605V94.3605H309.145L309.666 93.1539L307.83 92.3605ZM346.55 2.76048V0.760481H345.236L344.714 1.96711L346.55 2.76048ZM368.47 2.76048H370.47V0.760481H368.47V2.76048ZM368.47 117V119H370.47V117H368.47ZM349.75 117H347.75V119H349.75V117ZM349.75 38.2805H351.75V36.2805H349.75V38.2805ZM349.11 38.2805V36.2805H347.789L347.271 37.4954L349.11 38.2805ZM315.51 117V119H316.831L317.35 117.786L315.51 117ZM299.35 117L297.511 117.786L298.029 119H299.35V117ZM265.75 38.2805L267.59 37.4954L267.071 36.2805H265.75V38.2805ZM265.11 38.2805V36.2805H263.11V38.2805H265.11ZM265.11 117V119H267.11V117H265.11ZM246.39 117H244.39V119H246.39V117ZM246.39 4.76048H268.31V0.760481H246.39V4.76048ZM266.476 3.55661L305.356 93.1566L309.025 91.5644L270.145 1.96435L266.476 3.55661ZM307.19 94.3605H307.83V90.3605H307.19V94.3605ZM309.666 93.1539L348.386 3.55386L344.714 1.96711L305.994 91.5671L309.666 93.1539ZM346.55 4.76048H368.47V0.760481H346.55V4.76048ZM366.47 2.76048V117H370.47V2.76048H366.47ZM368.47 115H349.75V119H368.47V115ZM351.75 117V38.2805H347.75V117H351.75ZM349.75 36.2805H349.11V40.2805H349.75V36.2805ZM347.271 37.4954L313.671 116.215L317.35 117.786L350.95 39.0656L347.271 37.4954ZM315.51 115H299.35V119H315.51V115ZM301.19 116.215L267.59 37.4954L263.911 39.0656L297.511 117.786L301.19 116.215ZM265.75 36.2805H265.11V40.2805H265.75V36.2805ZM263.11 38.2805V117H267.11V38.2805H263.11ZM265.11 115H246.39V119H265.11V115ZM248.39 117V2.76048H244.39V117H248.39ZM390.922 2.76048V0.760481H388.922V2.76048H390.922ZM409.642 2.76048H411.642V0.760481H409.642V2.76048ZM409.642 117V119H411.642V117H409.642ZM390.922 117H388.922V119H390.922V117ZM390.922 4.76048H409.642V0.760481H390.922V4.76048ZM407.642 2.76048V117H411.642V2.76048H407.642ZM409.642 115H390.922V119H409.642V115ZM392.922 117V2.76048H388.922V117H392.922ZM432.015 2.76048V0.760481H430.015V2.76048H432.015ZM450.735 2.76048L452.385 1.62973L451.789 0.760481H450.735V2.76048ZM507.215 85.1605L505.566 86.2912L506.161 87.1605H507.215V85.1605ZM507.855 85.1605V87.1605H509.855V85.1605H507.855ZM507.855 2.76048V0.760481H505.855V2.76048H507.855ZM526.735 2.76048H528.735V0.760481H526.735V2.76048ZM526.735 117V119H528.735V117H526.735ZM508.495 117L506.844 118.13L507.44 119H508.495V117ZM451.375 33.4805L453.026 32.3515L452.43 31.4805H451.375V33.4805ZM450.735 33.4805V31.4805H448.735V33.4805H450.735ZM450.735 117V119H452.735V117H450.735ZM432.015 117H430.015V119H432.015V117ZM432.015 4.76048H450.735V0.760481H432.015V4.76048ZM449.086 3.89123L505.566 86.2912L508.865 84.0297L452.385 1.62973L449.086 3.89123ZM507.215 87.1605H507.855V83.1605H507.215V87.1605ZM509.855 85.1605V2.76048H505.855V85.1605H509.855ZM507.855 4.76048H526.735V0.760481H507.855V4.76048ZM524.735 2.76048V117H528.735V2.76048H524.735ZM526.735 115H508.495V119H526.735V115ZM510.146 115.871L453.026 32.3515L449.724 34.6095L506.844 118.13L510.146 115.871ZM451.375 31.4805H450.735V35.4805H451.375V31.4805ZM448.735 33.4805V117H452.735V33.4805H448.735ZM450.735 115H432.015V119H450.735V115ZM434.015 117V2.76048H430.015V117H434.015ZM633.523 10.2805L634.752 8.70286L634.745 8.69747L633.523 10.2805ZM648.883 38.9205V40.9205H651.227L650.858 38.6051L648.883 38.9205ZM630.003 38.9205L628.05 39.3513L628.396 40.9205H630.003V38.9205ZM619.763 22.4405L620.925 20.813L620.914 20.8051L620.903 20.7973L619.763 22.4405ZM573.363 27.8805L574.848 29.2196L574.867 29.1992L574.884 29.1784L573.363 27.8805ZM572.243 91.4005L570.71 92.6853L570.719 92.6955L570.727 92.7055L572.243 91.4005ZM618.323 101L618.838 102.933L618.846 102.931L618.853 102.929L618.323 101ZM630.643 95.7205L631.665 97.4396L632.643 96.8581V95.7205H630.643ZM630.643 72.2005H632.643V70.2005H630.643V72.2005ZM600.403 72.2005H598.403V74.2005H600.403V72.2005ZM600.403 56.2005V54.2005H598.403V56.2005H600.403ZM649.363 56.2005H651.363V54.2005H649.363V56.2005ZM649.363 104.52L650.612 106.082L651.363 105.482V104.52H649.363ZM628.563 115.4L629.151 117.312L629.162 117.309L629.172 117.305L628.563 115.4ZM558.483 101.96L559.984 100.64L559.984 100.639L558.483 101.96ZM558.483 18.1205L560.003 19.4196L560.01 19.4116L560.017 19.4036L558.483 18.1205ZM598.803 2.52048C613.247 2.52048 624.336 5.71381 632.3 11.8635L634.745 8.69747C625.856 1.83382 613.799 -1.47952 598.803 -1.47952V2.52048ZM632.294 11.8581C640.019 17.8779 644.941 26.9194 646.908 39.2358L650.858 38.6051C648.771 25.5349 643.453 15.483 634.752 8.70288L632.294 11.8581ZM648.883 36.9205H630.003V40.9205H648.883V36.9205ZM631.956 38.4897C630.267 30.8339 626.617 24.8783 620.925 20.813L618.6 24.068C623.362 27.4693 626.539 32.5004 628.05 39.3513L631.956 38.4897ZM620.903 20.7973C615.237 16.8659 607.808 15.0005 598.803 15.0005V19.0005C607.291 19.0005 613.835 20.7617 618.623 24.0837L620.903 20.7973ZM598.803 15.0005C587.529 15.0005 578.46 18.8228 571.841 26.5826L574.884 29.1784C580.639 22.4316 588.53 19.0005 598.803 19.0005V15.0005ZM571.877 26.5414C564.611 34.6019 561.123 45.9751 561.123 60.3605H565.123C565.123 46.5858 568.461 36.3057 574.848 29.2196L571.877 26.5414ZM561.123 60.3605C561.123 74.0761 564.223 84.9467 570.71 92.6853L573.776 90.1157C568.102 83.3476 565.123 73.5249 565.123 60.3605H561.123ZM570.727 92.7055C577.846 100.973 588.739 104.92 602.963 104.92V100.92C589.454 100.92 579.866 97.1884 573.758 90.0954L570.727 92.7055ZM602.963 104.92C608.56 104.92 613.855 104.262 618.838 102.933L617.807 99.068C613.191 100.299 608.245 100.92 602.963 100.92V104.92ZM618.853 102.929C623.299 101.706 627.57 99.8742 631.665 97.4396L629.621 94.0014C625.822 96.2601 621.88 97.948 617.792 99.0721L618.853 102.929ZM632.643 95.7205V72.2005H628.643V95.7205H632.643ZM630.643 70.2005H600.403V74.2005H630.643V70.2005ZM602.403 72.2005V56.2005H598.403V72.2005H602.403ZM600.403 58.2005H649.363V54.2005H600.403V58.2005ZM647.363 56.2005V104.52H651.363V56.2005H647.363ZM648.113 102.959C642.458 107.483 635.748 111.001 627.953 113.496L629.172 117.305C637.378 114.68 644.534 110.945 650.612 106.082L648.113 102.959ZM627.975 113.489C619.873 115.982 610.849 117.24 600.883 117.24V121.24C611.184 121.24 620.612 119.939 629.151 117.312L627.975 113.489ZM600.883 117.24C583.21 117.24 569.668 111.649 559.984 100.64L556.981 103.281C567.564 115.312 582.289 121.24 600.883 121.24V117.24ZM559.984 100.639C550.981 90.4081 546.403 77.0435 546.403 60.3605H542.403C542.403 77.8108 547.211 92.1796 556.981 103.282L559.984 100.639ZM546.403 60.3605C546.403 43.5693 550.982 29.9785 560.003 19.4196L556.962 16.8213C547.21 28.2358 542.403 42.805 542.403 60.3605H546.403ZM560.017 19.4036C569.403 8.18073 582.251 2.52048 598.803 2.52048V-1.47952C581.221 -1.47952 567.189 4.59357 556.949 16.8374L560.017 19.4036ZM795.262 8.84048L796.458 7.23792L796.454 7.23499L795.262 8.84048ZM809.022 36.5205V38.5205H811.218L811.013 36.3333L809.022 36.5205ZM790.462 36.5205L788.511 36.9637L788.865 38.5205H790.462V36.5205ZM781.662 21.3205L780.448 22.9104L780.468 22.9253L780.488 22.9397L781.662 21.3205ZM746.302 19.7205L747.196 21.5093L747.226 21.4943L747.256 21.4782L746.302 19.7205ZM747.262 43.2405L748.214 41.4819L748.199 41.4738L748.184 41.466L747.262 43.2405ZM766.782 50.2805L766.178 52.1874L766.188 52.1905L766.198 52.1935L766.782 50.2805ZM796.702 61.4805L797.72 59.759L797.714 59.7557L796.702 61.4805ZM799.582 110.44L800.754 112.061L800.766 112.052L800.778 112.043L799.582 110.44ZM732.702 111.08L731.563 112.725L731.567 112.727L732.702 111.08ZM717.022 79.2405V77.2405H714.916L715.024 79.3433L717.022 79.2405ZM735.582 79.2405L737.56 78.9509L737.31 77.2405H735.582V79.2405ZM744.862 97.8005L743.673 99.4088L743.682 99.4159L743.692 99.4228L744.862 97.8005ZM785.502 98.6005L786.486 100.342L786.514 100.326L786.541 100.309L785.502 98.6005ZM782.142 72.8405L781.247 74.6294L781.258 74.6347L782.142 72.8405ZM759.902 65.3205L759.299 67.2277L759.309 67.2308L759.319 67.2338L759.902 65.3205ZM733.662 55.7205L732.636 57.4373L732.646 57.4438L732.657 57.4501L733.662 55.7205ZM733.342 8.84048L734.446 10.5078L734.469 10.4926L734.491 10.4769L733.342 8.84048ZM763.742 2.52048C777.047 2.52048 787.073 5.2487 794.069 10.446L796.454 7.23499C788.517 1.33893 777.53 -1.47952 763.742 -1.47952V2.52048ZM794.065 10.443C801.501 15.9954 805.895 24.6364 807.03 36.7077L811.013 36.3333C809.801 23.4446 805.022 13.6322 796.458 7.23792L794.065 10.443ZM809.022 34.5205H790.462V38.5205H809.022V34.5205ZM792.412 36.0772C790.744 28.7397 787.62 23.1699 782.836 19.7013L780.488 22.9397C784.237 25.6578 786.979 30.2212 788.511 36.9637L792.412 36.0772ZM782.875 19.7306C778.307 16.2446 771.484 14.6805 762.782 14.6805V18.6805C771.145 18.6805 776.909 20.2097 780.448 22.9104L782.875 19.7306ZM762.782 14.6805C755.401 14.6805 749.513 15.7015 745.347 17.9628L747.256 21.4782C750.557 19.6861 755.656 18.6805 762.782 18.6805V14.6805ZM745.407 17.9316C742.768 19.2512 740.698 21.0706 739.302 23.4183C737.91 25.7595 737.262 28.5023 737.262 31.5605H741.262C741.262 29.072 741.786 27.0681 742.741 25.4626C743.691 23.8637 745.142 22.5365 747.196 21.5093L745.407 17.9316ZM737.262 31.5605C737.262 37.4834 740.502 41.9799 746.339 45.0149L748.184 41.466C743.354 38.9544 741.262 35.6642 741.262 31.5605H737.262ZM746.309 44.9991C749.073 46.4962 755.786 48.9 766.178 52.1874L767.385 48.3736C756.87 45.0476 750.57 42.7581 748.214 41.4819L746.309 44.9991ZM766.198 52.1935C781.263 56.7878 791.016 60.4621 795.689 63.2053L797.714 59.7557C792.574 56.7389 782.38 52.9465 767.365 48.3675L766.198 52.1935ZM795.683 63.202C805.062 68.7485 809.582 76.3424 809.582 86.1205H813.582C813.582 74.7786 808.181 65.9458 797.72 59.759L795.683 63.202ZM809.582 86.1205C809.582 95.7485 805.864 103.253 798.385 108.838L800.778 112.043C809.299 105.681 813.582 96.9725 813.582 86.1205H809.582ZM798.409 108.82C790.766 114.351 779.929 117.24 765.662 117.24V121.24C780.408 121.24 792.184 118.263 800.754 112.061L798.409 108.82ZM765.662 117.24C751.807 117.24 741.273 114.559 733.836 109.434L731.567 112.727C739.917 118.482 751.357 121.24 765.662 121.24V117.24ZM733.84 109.436C724.761 103.15 719.742 93.1834 719.019 79.1377L715.024 79.3433C715.795 94.3109 721.229 105.571 731.563 112.725L733.84 109.436ZM717.022 81.2405H735.582V77.2405H717.022V81.2405ZM733.603 79.5301C734.925 88.5667 738.177 95.3467 743.673 99.4088L746.05 96.1921C741.733 93.0009 738.798 87.4076 737.56 78.9509L733.603 79.5301ZM743.692 99.4228C748.775 103.088 756.207 104.76 765.662 104.76V100.76C756.556 100.76 750.121 99.1267 746.031 96.1781L743.692 99.4228ZM765.662 104.76C774.174 104.76 781.169 103.347 786.486 100.342L784.517 96.8594C780.021 99.401 773.789 100.76 765.662 100.76V104.76ZM786.541 100.309C791.871 97.0648 794.862 92.7066 794.862 87.2405H790.862C790.862 90.9477 788.945 94.1628 784.462 96.8921L786.541 100.309ZM794.862 87.2405C794.862 80.1546 790.605 74.7796 783.025 71.0463L781.258 74.6347C787.971 77.9413 790.862 82.1663 790.862 87.2405H794.862ZM783.036 71.0516C780.288 69.6778 772.678 67.1183 760.484 63.4071L759.319 67.2338C771.659 70.9894 778.875 73.4432 781.247 74.6293L783.036 71.0516ZM760.504 63.4133C753.424 61.1777 747.723 59.2678 743.389 57.6822C739.014 56.0816 736.151 54.8531 734.666 53.9909L732.657 57.4501C734.479 58.5078 737.643 59.8394 742.014 61.4387C746.427 63.0532 752.192 64.9833 759.299 67.2277L760.504 63.4133ZM734.687 54.0037C726.541 49.1356 722.542 42.1052 722.542 32.6805H718.542C718.542 43.5224 723.289 51.8521 732.636 57.4373L734.687 54.0037ZM722.542 32.6805C722.542 23.1109 726.472 15.7905 734.446 10.5078L732.237 7.17318C723.144 13.1971 718.542 21.77 718.542 32.6805H722.542ZM734.491 10.4769C741.964 5.22584 751.664 2.52048 763.742 2.52048V-1.47952C751.073 -1.47952 740.506 1.36179 732.192 7.20409L734.491 10.4769ZM919.64 17.4805L918.144 18.8075L918.149 18.813L918.154 18.8184L919.64 17.4805ZM919.64 102.44L921.13 103.774L921.134 103.771L919.64 102.44ZM837.08 102.28L835.58 103.603L835.584 103.607L837.08 102.28ZM837.08 17.6405L838.581 18.9627L838.589 18.9536L838.597 18.9444L837.08 17.6405ZM850.84 29.0005L849.299 27.7262L849.291 27.7352L850.84 29.0005ZM850.84 90.9205L852.394 89.6609L852.389 89.6552L850.84 90.9205ZM905.72 91.4005L907.248 92.6914L907.253 92.6851L907.259 92.6787L905.72 91.4005ZM905.72 28.3605L907.276 27.1033L907.267 27.0927L907.259 27.0822L905.72 28.3605ZM878.36 2.52048C895.381 2.52048 908.558 7.99802 918.144 18.8075L921.137 16.1535C910.669 4.34961 896.326 -1.47952 878.36 -1.47952V2.52048ZM918.154 18.8184C927.35 29.0371 932.04 42.7072 932.04 60.0405H936.04C936.04 41.9604 931.13 27.2572 921.127 16.1426L918.154 18.8184ZM932.04 60.0405C932.04 77.1524 927.355 90.777 918.147 101.11L921.134 103.771C931.126 92.5573 936.04 77.9153 936.04 60.0405H932.04ZM918.15 101.106C908.566 111.812 895.387 117.24 878.36 117.24V121.24C896.32 121.24 910.661 115.469 921.13 103.774L918.15 101.106ZM878.36 117.24C861.34 117.24 848.162 111.763 838.577 100.954L835.584 103.607C846.052 115.411 860.394 121.24 878.36 121.24V117.24ZM838.581 100.958C829.474 90.6235 824.84 77.0478 824.84 60.0405H820.84C820.84 77.8065 825.7 92.3908 835.58 103.603L838.581 100.958ZM824.84 60.0405C824.84 42.9229 829.476 29.2953 838.581 18.9627L835.58 16.3182C825.698 27.5324 820.84 42.1714 820.84 60.0405H824.84ZM838.597 18.9444C847.962 8.0523 861.123 2.52048 878.36 2.52048V-1.47952C860.184 -1.47952 845.825 4.40199 835.564 16.3366L838.597 18.9444ZM878.36 15.0005C866.118 15.0005 856.345 19.2031 849.299 27.7262L852.382 30.2748C858.563 22.7978 867.136 19.0005 878.36 19.0005V15.0005ZM849.291 27.7352C842.727 35.7713 839.56 46.6171 839.56 60.0405H843.56C843.56 47.2239 846.581 37.3764 852.389 30.2658L849.291 27.7352ZM839.56 60.0405C839.56 73.3618 842.729 84.1524 849.291 92.1858L852.389 89.6552C846.578 82.5419 843.56 72.7458 843.56 60.0405H839.56ZM849.287 92.1801C856.135 100.626 865.929 104.76 878.36 104.76V100.76C866.898 100.76 858.345 97.0012 852.394 89.6609L849.287 92.1801ZM878.36 104.76C890.663 104.76 900.393 100.802 907.248 92.6914L904.193 90.1096C898.247 97.1452 889.738 100.76 878.36 100.76V104.76ZM907.259 92.6787C913.941 84.6369 917.16 73.6753 917.16 60.0405H913.16C913.16 73.0723 910.086 83.0175 904.182 90.1223L907.259 92.6787ZM917.16 60.0405C917.16 46.4018 913.94 35.3485 907.276 27.1033L904.165 29.6177C910.088 36.9458 913.16 47.0125 913.16 60.0405H917.16ZM907.259 27.0822C900.504 18.9543 890.762 15.0005 878.36 15.0005V19.0005C889.852 19.0005 898.35 22.62 904.182 29.6387L907.259 27.0822ZM1043.7 17.4805L1042.21 18.8075L1042.21 18.813L1042.22 18.8184L1043.7 17.4805ZM1043.7 102.44L1045.19 103.774L1045.2 103.771L1043.7 102.44ZM961.143 102.28L959.642 103.603L959.646 103.607L961.143 102.28ZM961.143 17.6405L962.643 18.9627L962.651 18.9536L962.659 18.9444L961.143 17.6405ZM974.903 29.0005L973.361 27.7262L973.354 27.7352L974.903 29.0005ZM974.903 90.9205L976.456 89.6609L976.452 89.6552L974.903 90.9205ZM1029.78 91.4005L1031.31 92.6914L1031.32 92.6851L1031.32 92.6787L1029.78 91.4005ZM1029.78 28.3605L1031.34 27.1033L1031.33 27.0927L1031.32 27.0822L1029.78 28.3605ZM1002.42 2.52048C1019.44 2.52048 1032.62 7.99802 1042.21 18.8075L1045.2 16.1535C1034.73 4.34961 1020.39 -1.47952 1002.42 -1.47952V2.52048ZM1042.22 18.8184C1051.41 29.0371 1056.1 42.7072 1056.1 60.0405H1060.1C1060.1 41.9604 1055.19 27.2572 1045.19 16.1426L1042.22 18.8184ZM1056.1 60.0405C1056.1 77.1524 1051.42 90.777 1042.21 101.11L1045.2 103.771C1055.19 92.5573 1060.1 77.9153 1060.1 60.0405H1056.1ZM1042.21 101.106C1032.63 111.812 1019.45 117.24 1002.42 117.24V121.24C1020.38 121.24 1034.72 115.469 1045.19 103.774L1042.21 101.106ZM1002.42 117.24C985.402 117.24 972.225 111.763 962.639 100.954L959.646 103.607C970.114 115.411 984.457 121.24 1002.42 121.24V117.24ZM962.643 100.958C953.536 90.6235 948.903 77.0478 948.903 60.0405H944.903C944.903 77.8065 949.762 92.3908 959.642 103.603L962.643 100.958ZM948.903 60.0405C948.903 42.9229 953.538 29.2953 962.643 18.9627L959.642 16.3182C949.76 27.5324 944.903 42.1714 944.903 60.0405H948.903ZM962.659 18.9444C972.025 8.0523 985.185 2.52048 1002.42 2.52048V-1.47952C984.247 -1.47952 969.888 4.40199 959.626 16.3366L962.659 18.9444ZM1002.42 15.0005C990.181 15.0005 980.407 19.2031 973.361 27.7262L976.444 30.2748C982.625 22.7978 991.198 19.0005 1002.42 19.0005V15.0005ZM973.354 27.7352C966.789 35.7713 963.623 46.6171 963.623 60.0405H967.623C967.623 47.2239 970.643 37.3764 976.452 30.2658L973.354 27.7352ZM963.623 60.0405C963.623 73.3618 966.791 84.1524 973.354 92.1858L976.452 89.6552C970.641 82.5419 967.623 72.7458 967.623 60.0405H963.623ZM973.349 92.1801C980.198 100.626 989.991 104.76 1002.42 104.76V100.76C990.961 100.76 982.408 97.0012 976.456 89.6609L973.349 92.1801ZM1002.42 104.76C1014.73 104.76 1024.46 100.802 1031.31 92.6914L1028.26 90.1096C1022.31 97.1452 1013.8 100.76 1002.42 100.76V104.76ZM1031.32 92.6787C1038 84.6369 1041.22 73.6753 1041.22 60.0405H1037.22C1037.22 73.0723 1034.15 83.0175 1028.24 90.1223L1031.32 92.6787ZM1041.22 60.0405C1041.22 46.4018 1038 35.3485 1031.34 27.1033L1028.23 29.6177C1034.15 36.9458 1037.22 47.0125 1037.22 60.0405H1041.22ZM1031.32 27.0822C1024.57 18.9543 1014.82 15.0005 1002.42 15.0005V19.0005C1013.91 19.0005 1022.41 22.62 1028.24 29.6387L1031.32 27.0822ZM1075.77 2.76048V0.760481H1073.77V2.76048H1075.77ZM1094.49 2.76048L1096.14 1.62973L1095.54 0.760481H1094.49V2.76048ZM1150.97 85.1605L1149.32 86.2912L1149.91 87.1605H1150.97V85.1605ZM1151.61 85.1605V87.1605H1153.61V85.1605H1151.61ZM1151.61 2.76048V0.760481H1149.61V2.76048H1151.61ZM1170.49 2.76048H1172.49V0.760481H1170.49V2.76048ZM1170.49 117V119H1172.49V117H1170.49ZM1152.25 117L1150.59 118.13L1151.19 119H1152.25V117ZM1095.13 33.4805L1096.78 32.3515L1096.18 31.4805H1095.13V33.4805ZM1094.49 33.4805V31.4805H1092.49V33.4805H1094.49ZM1094.49 117V119H1096.49V117H1094.49ZM1075.77 117H1073.77V119H1075.77V117ZM1075.77 4.76048H1094.49V0.760481H1075.77V4.76048ZM1092.84 3.89123L1149.32 86.2912L1152.61 84.0297L1096.14 1.62973L1092.84 3.89123ZM1150.97 87.1605H1151.61V83.1605H1150.97V87.1605ZM1153.61 85.1605V2.76048H1149.61V85.1605H1153.61ZM1151.61 4.76048H1170.49V0.760481H1151.61V4.76048ZM1168.49 2.76048V117H1172.49V2.76048H1168.49ZM1170.49 115H1152.25V119H1170.49V115ZM1153.9 115.871L1096.78 32.3515L1093.47 34.6095L1150.59 118.13L1153.9 115.871ZM1095.13 31.4805H1094.49V35.4805H1095.13V31.4805ZM1092.49 33.4805V117H1096.49V33.4805H1092.49ZM1094.49 115H1075.77V119H1094.49V115ZM1077.77 117V2.76048H1073.77V117H1077.77Z" fill="#5D2DFD"/>
</g>
<defs>
<filter id="filter0_b_2_57" x="-9.65967" y="-9.47949" width="1190.15" height="138.72" filterUnits="userSpaceOnUse" color-interpolation-filters="sRGB">
<feFlood flood-opacity="0" result="BackgroundImageFix"/>
<feGaussianBlur in="BackgroundImage" stdDeviation="5"/>
<feComposite in2="SourceAlpha" operator="in" result="effect1_backgroundBlur_2_57"/>
<feBlend mode="normal" in="SourceGraphic" in2="effect1_backgroundBlur_2_57" result="shape"/>
</filter>
</defs>
</svg>
