<svg width="180" height="63" viewBox="0 0 180 63" fill="none" xmlns="http://www.w3.org/2000/svg">
<path d="M104.968 8.65967H97.071V34.4655H104.968V8.65967Z" fill="white"/>
<path d="M120.752 43.8795V8.66455H112.855V43.8795C112.852 46.2148 111.931 48.454 110.292 50.108C108.653 51.762 106.431 52.6965 104.11 52.7073H103.834V60.6524H104.141C106.554 60.6442 108.936 60.108 111.123 59.0809C113.31 58.0538 115.248 56.5605 116.804 54.7045C119.572 58.0026 123.498 60.0987 127.764 60.5559V52.5264C125.786 52.1152 124.009 51.0309 122.732 49.4561C121.454 47.8813 120.755 45.912 120.752 43.8795Z" fill="white"/>
<path d="M176.167 44.7913C176.183 44.4898 176.193 44.1858 176.193 43.8795V26.5133H169.344L175.097 16.8509V8.9082H137.716V16.8533V44.2751C137.713 45.9216 137.253 47.5345 136.387 48.932C135.522 50.3295 134.286 51.4558 132.818 52.184V60.5801C136.459 59.6998 139.7 57.6135 142.021 54.6563C144.342 51.6991 145.606 48.0428 145.613 44.2751V16.8533H165.882L160.128 26.5205H155.094V34.4656H168.279V43.8723C168.277 46.2128 167.352 48.4567 165.707 50.1117C164.062 51.7667 161.831 52.6976 159.505 52.7001H152.414V60.6525H159.505C161.849 60.6534 164.167 60.1558 166.306 59.1923C168.445 58.2287 170.358 56.821 171.919 55.0615C174 57.6786 176.81 59.6105 179.99 60.609V51.8921C178.838 51.0998 177.889 50.0423 177.224 48.8073C176.559 47.5723 176.197 46.1955 176.167 44.7913Z" fill="white"/>
<path d="M97.982 52.7171C95.6556 52.7146 93.4253 51.7837 91.7804 50.1287C90.1354 48.4737 89.2102 46.2298 89.2077 43.8893V8.67432H81.3108V43.8893C81.3159 48.3362 83.0739 52.5994 86.1993 55.7439C89.3246 58.8883 93.562 60.6571 97.982 60.6622H98.2888V52.7171H97.982Z" fill="white"/>
<path d="M43.9098 28.0063C42.505 26.5929 41.1009 25.1803 39.6977 23.7684C40.9826 22.4753 42.0019 20.9402 42.6971 19.2508C43.3924 17.5614 43.7502 15.7508 43.75 13.9222C43.7497 12.0937 43.3915 10.2831 42.6958 8.5939C42.0001 6.90466 40.9806 5.36982 39.6953 4.07702C38.41 2.78422 36.8842 1.75878 35.2051 1.05925C33.5259 0.35971 31.7262 -0.000223882 29.9088 1.04476e-07C28.0914 0.000224091 26.2918 0.360599 24.6128 1.06055C22.9338 1.7605 21.4083 2.78632 20.1233 4.07944C18.1671 6.04761 16.2101 8.01659 14.2522 9.98638L20.0802 15.8499L25.9513 9.94296C27.008 8.92494 28.4189 8.36378 29.8818 8.37972C31.3447 8.39567 32.7433 8.98744 33.7778 10.0283C34.8123 11.0691 35.4004 12.4761 35.4163 13.948C35.4321 15.4198 34.8744 16.8394 33.8625 17.9025L11.7398 40.1579L5.8711 34.2509L0 40.1579L5.8711 46.0648L0 51.9717L5.82795 57.8353L11.6991 51.9283L15.9088 56.1662C19.6204 59.902 24.655 62.0014 29.9051 62.0026C35.1552 62.0037 40.1907 59.9065 43.9038 56.1722C47.617 52.438 49.7037 47.3726 49.7048 42.0905C49.7059 36.8084 47.6214 31.7421 43.9098 28.0063ZM38.0387 50.2617C36.9717 51.3354 35.7049 52.1872 34.3106 52.7683C32.9164 53.3494 31.4221 53.6485 29.9129 53.6485C28.4038 53.6485 26.9094 53.3494 25.5152 52.7683C24.1209 52.1872 22.8541 51.3354 21.7871 50.2617L17.575 46.0238L33.8266 29.6754L38.0387 33.9036C39.107 34.9773 39.9545 36.2523 40.5327 37.6557C41.111 39.0591 41.4086 40.5634 41.4086 42.0826C41.4086 43.6018 41.111 45.1062 40.5327 46.5096C39.9545 47.913 39.107 49.188 38.0387 50.2617Z" fill="white"/>
</svg>
